<svg width="24" height="24" viewBox="0 0 24 24" fill="none" xmlns="http://www.w3.org/2000/svg">
<path d="M19.9232 3.7158C17.7228 1.5143 14.7968 0.300971 11.6795 0.299805C5.25583 0.299805 0.0280001 5.5253 0.0256667 11.949C0.0245001 14.0023 0.561167 16.0066 1.58083 17.773L0 23.6331L6.10517 22.19C7.80733 23.1186 9.723 23.6075 11.6737 23.6086H11.6783C18.1008 23.6086 23.3287 18.382 23.3322 11.9595C23.3345 8.84564 22.1235 5.91847 19.9232 3.7158ZM17.381 16.1128C17.1383 16.793 15.9495 17.4486 15.4152 17.4965C14.8808 17.5455 14.3803 17.738 11.921 16.7685C8.96117 15.6018 7.09217 12.5673 6.9475 12.3736C6.80167 12.1788 5.75867 10.7951 5.75867 9.36247C5.75867 7.9298 6.51117 7.22514 6.77833 6.93464C7.0455 6.64297 7.3605 6.57064 7.55533 6.57064C7.749 6.57064 7.94383 6.57064 8.113 6.57764C8.32067 6.5858 8.5505 6.5963 8.76867 7.08047C9.02767 7.65681 9.5935 9.09647 9.66583 9.2423C9.73816 9.38814 9.78716 9.55847 9.69033 9.75214C9.5935 9.94581 9.5445 10.0671 9.39983 10.2375C9.254 10.4078 9.09416 10.6166 8.9635 10.7473C8.81767 10.892 8.666 11.0506 8.83517 11.3411C9.0055 11.6328 9.58883 12.586 10.4545 13.3571C11.5675 14.3488 12.5043 14.6556 12.796 14.8026C13.0877 14.9485 13.2568 14.924 13.4272 14.7291C13.5975 14.5355 14.1552 13.8798 14.3488 13.5881C14.5425 13.2965 14.7373 13.3455 15.0045 13.4423C15.2717 13.5391 16.7032 14.2438 16.9937 14.3896C17.2853 14.5355 17.479 14.6078 17.5513 14.7291C17.6237 14.8493 17.6237 15.4326 17.381 16.1128Z" fill="black"/>
</svg>
