<svg width="28" height="25" viewBox="0 0 28 25" fill="none" xmlns="http://www.w3.org/2000/svg">
<path d="M25.6261 0.591637C25.3343 0.604528 25.0496 0.685387 24.7929 0.788512C24.5386 0.890465 23.0773 1.5139 20.9187 2.43734C18.7601 3.36078 15.9546 4.56195 13.1726 5.75375C7.60971 8.13734 2.14292 10.4823 2.14292 10.4823L2.18276 10.467C2.18276 10.467 1.85229 10.5772 1.51831 10.8104C1.35073 10.9264 1.17143 11.0776 1.02378 11.2967C0.876121 11.5159 0.768308 11.8264 0.809324 12.1557C0.952293 13.31 2.14878 13.6381 2.14878 13.6381L2.15346 13.6405L7.49487 15.4686C7.63081 15.9233 9.1144 20.8756 9.44136 21.9244C9.62182 22.5045 9.79057 22.8385 9.96636 23.067C10.0542 23.1807 10.1468 23.2698 10.2488 23.3342C10.2898 23.36 10.332 23.3787 10.3742 23.3963C10.3753 23.3963 10.3753 23.3963 10.3765 23.3963C10.3812 23.3987 10.3871 23.3987 10.3917 23.401L10.3777 23.3975C10.3871 23.401 10.3976 23.408 10.407 23.4116C10.4257 23.4186 10.4374 23.4174 10.4621 23.4233C11.0738 23.6366 11.58 23.2405 11.58 23.2405L11.6011 23.2241L14.8824 20.1807L20.2074 24.3326L20.2742 24.3631C21.2058 24.7768 22.0496 24.5459 22.516 24.1662C22.9824 23.7866 23.1664 23.2967 23.1664 23.2967L23.1863 23.2451L27.0992 2.85101C27.1988 2.39515 27.214 2.00023 27.1191 1.64398C27.0242 1.28773 26.7957 0.978356 26.5074 0.80609C26.2191 0.633825 25.9179 0.578747 25.6261 0.591637ZM25.6578 1.81156C25.7761 1.8057 25.864 1.81976 25.8921 1.83617C25.9203 1.85257 25.932 1.85023 25.9589 1.95101C25.9859 2.05179 26 2.26273 25.9273 2.59437L25.9249 2.6014L22.0343 22.8772C22.025 22.8971 21.9441 23.0846 21.7589 23.2358C21.5703 23.3893 21.3605 23.5088 20.8027 23.2756L14.9796 18.7346L14.8156 18.6057L14.8121 18.6092L13.0707 17.3026L22.857 5.7889C23.0105 5.60843 23.0433 5.35531 22.9414 5.14086C22.8394 4.92757 22.6214 4.79398 22.3847 4.79984C22.271 4.80336 22.1609 4.83734 22.0671 4.90062L7.9062 14.3412L2.55659 12.5096C2.55659 12.5096 2.02573 12.2143 1.99995 12.008C1.99878 11.9963 1.99175 12.0069 2.01987 11.9659C2.048 11.9248 2.11714 11.8557 2.20386 11.7948C2.37729 11.6741 2.57651 11.6002 2.57651 11.6002L2.59643 11.5932L2.61636 11.585C2.61636 11.585 8.08315 9.24007 13.646 6.85648C16.4269 5.66468 19.2324 4.46351 21.391 3.54125C23.5484 2.61898 25.107 1.95453 25.2394 1.90179C25.3894 1.84203 25.5394 1.81742 25.6578 1.81156ZM19.1679 8.27562L11.7464 17.0073L11.7429 17.0108C11.7312 17.0248 11.7207 17.0389 11.7101 17.0541C11.6984 17.0705 11.6878 17.0869 11.6773 17.1045C11.6351 17.1748 11.6093 17.2534 11.5988 17.3354C11.5988 17.3366 11.5988 17.3389 11.5988 17.3401L10.632 21.6877C10.6156 21.6409 10.605 21.6233 10.5874 21.5682V21.567C10.2804 20.5803 8.88003 15.9092 8.68667 15.2635L19.1679 8.27562ZM12.5843 18.4381L13.9179 19.4389L11.9585 21.2553L12.5843 18.4381Z" fill="white"/>
</svg>
