<svg width="24" height="22" viewBox="0 0 24 22" fill="none" xmlns="http://www.w3.org/2000/svg">
<path d="M23.2944 0.596741C22.8894 0.253301 22.2533 0.204161 21.5956 0.468221H21.5945C20.9028 0.745781 2.01356 8.84794 1.2446 9.17896C1.10474 9.22756 -0.116743 9.68332 0.00907679 10.6985C0.121397 11.6138 1.10312 11.9929 1.223 12.0366L6.02522 13.6809C6.34382 14.7415 7.51832 18.6543 7.77806 19.4903C7.94006 20.0114 8.20412 20.6961 8.6669 20.837C9.07298 20.9936 9.4769 20.8505 9.73826 20.6453L12.6742 17.9221L17.4138 21.6184L17.5267 21.6859C17.8485 21.8285 18.1569 21.8997 18.4512 21.8997C18.6785 21.8997 18.8967 21.8571 19.1051 21.7718C19.8152 21.4802 20.0992 20.8035 20.1289 20.7269L23.6692 2.32528C23.8852 1.34248 23.5849 0.842441 23.2944 0.596741ZM10.2604 14.3387L8.64044 18.6587L7.02044 13.2587L19.4404 4.07866L10.2604 14.3387Z" fill="black"/>
</svg>
